<svg version="1.1" id="Layer_1" xmlns="http://www.w3.org/2000/svg" xmlns:xlink="http://www.w3.org/1999/xlink" x="0px" y="0px"
	 width="100%" viewBox="0 0 1024 1024" enable-background="new 0 0 1024 1024" xml:space="preserve">
<path fill="#000000" opacity="1.000000" stroke="none" 
	d="
M498.535950,508.355408 
	C489.775238,523.844666 476.862946,530.899231 459.436615,529.332642 
	C444.138947,527.957336 428.986298,512.648560 427.790375,497.209747 
	C427.354248,491.579315 426.841614,485.937042 427.223419,480.245422 
	C427.418152,477.342407 428.383301,475.855713 431.365540,475.981201 
	C431.531647,475.988190 431.698730,475.969208 431.865295,475.970032 
	C448.283356,476.049957 445.119995,474.451752 445.160706,488.483215 
	C445.183868,496.461060 446.922943,503.378235 453.692993,508.195435 
	C462.689240,514.596680 475.397522,512.284485 481.576508,503.252838 
	C488.001862,493.861084 485.376007,479.503326 476.069611,472.867615 
	C472.104462,470.040375 467.726471,469.046692 462.895630,469.064453 
	C445.063812,469.129944 427.231018,469.096222 409.399414,468.976166 
	C398.898041,468.905457 388.894287,467.184998 380.322784,460.289459 
	C368.860596,451.068359 363.672760,434.483063 368.083191,420.151093 
	C372.773315,404.910248 385.441772,394.528625 400.882111,393.629150 
	C422.524078,392.368500 444.196594,393.184021 465.854736,392.987000 
	C467.997833,392.967499 470.147369,393.494232 472.291534,393.784943 
	C476.168060,394.310486 478.692047,395.797302 480.028503,400.130005 
	C482.588898,408.430908 488.591461,413.982483 496.917908,416.501617 
	C499.977783,417.427399 501.419891,419.086151 501.887848,421.931854 
	C503.929077,434.344727 503.088593,446.841736 502.875092,459.317413 
	C502.868347,459.710663 502.342865,460.095001 501.496338,461.254364 
	C497.173798,456.152161 491.783905,452.664856 486.532715,448.978424 
	C484.746460,447.724457 484.908844,445.448761 484.893921,443.434784 
	C484.859314,438.769043 484.946625,434.098450 484.762054,429.438599 
	C484.374786,419.661469 476.725677,411.456757 466.904022,411.322906 
	C445.243866,411.027679 423.573364,411.038788 401.913696,411.365448 
	C391.762848,411.518494 384.021729,421.109100 384.349854,431.960510 
	C384.662415,442.296814 392.592072,450.567291 402.730408,450.651123 
	C421.894958,450.809631 441.061462,450.742798 460.227173,450.744019 
	C482.377441,450.745453 498.722900,464.180969 502.763733,485.837433 
	C504.233795,493.716187 502.178070,501.016235 498.535950,508.355408 
z"/>
<path fill="#000000" opacity="1.000000" stroke="none" 
	d="
M529.033997,526.221924 
	C506.220459,514.442688 498.891174,487.101715 513.575806,467.595245 
	C521.941528,456.482635 533.859863,450.982635 547.802551,450.802673 
	C566.797302,450.557465 585.797729,450.778412 604.795349,450.708099 
	C616.549622,450.664581 624.613892,442.846222 624.698242,431.618164 
	C624.788147,419.649200 616.856750,411.294312 604.926270,411.215118 
	C584.762878,411.081268 564.597534,411.078247 544.433960,411.191406 
	C532.285156,411.259552 523.929993,419.192474 524.424133,431.237640 
	C524.854614,441.732330 524.492493,451.071594 513.079834,455.906067 
	C510.891602,456.833008 509.864868,459.672882 507.525970,460.618713 
	C506.037842,460.012573 506.007477,458.760010 506.022003,457.639832 
	C506.164612,446.650818 505.519257,435.641754 506.759766,424.679749 
	C507.230530,420.519928 508.466949,417.448944 513.346497,416.017029 
	C521.534668,413.614227 526.892029,407.594513 529.397766,399.488251 
	C530.390564,396.276581 532.044373,394.821655 535.134338,394.210541 
	C538.410095,393.562683 541.658936,392.923981 545.018372,392.936554 
	C566.343689,393.016479 587.669678,392.866028 608.988892,393.661835 
	C627.667542,394.359039 643.567688,412.766479 642.554260,432.712250 
	C641.555786,452.363434 627.154968,467.054749 607.503357,468.341309 
	C586.866394,469.692352 566.195801,468.675629 545.544495,469.095306 
	C529.733948,469.416595 519.639282,484.732788 525.565125,499.451202 
	C529.041992,508.086975 538.140808,513.122009 547.413269,511.541382 
	C556.678650,509.961914 563.452148,502.213165 563.745361,492.779144 
	C563.854004,489.282104 563.818726,485.780792 563.869385,482.281738 
	C563.886230,481.117279 563.586609,479.751862 564.080261,478.823059 
	C566.965454,473.394745 572.085083,476.804626 576.153931,476.079102 
	C578.485779,475.663391 581.695496,475.538696 581.903748,479.143097 
	C582.962341,497.465820 581.273926,513.061096 563.769226,524.134644 
	C552.684998,531.146606 541.208496,531.170959 529.033997,526.221924 
z"/>
<path fill="#000000" opacity="1.000000" stroke="none" 
	d="
M394.349670,315.979034 
	C399.474335,314.581451 404.305420,314.661560 409.141968,314.666687 
	C426.972900,314.685547 444.807953,314.894348 462.633728,314.584686 
	C482.073853,314.247009 489.062714,296.491882 483.071960,282.603516 
	C479.588470,274.527710 470.006073,269.883545 461.551483,271.631256 
	C452.311523,273.541290 445.748505,280.925629 445.329346,290.050507 
	C445.161224,293.709961 445.266266,297.381500 445.222809,301.047272 
	C445.209015,302.211304 445.295288,303.417206 445.028351,304.530182 
	C444.102570,308.390137 440.763336,307.451477 438.459778,307.098022 
	C434.736359,306.526672 429.259277,310.000397 427.517242,304.420288 
	C422.099823,287.067047 432.706940,264.672577 449.527863,256.839203 
	C471.104004,246.791382 498.102325,261.375427 502.257751,285.529602 
	C507.194275,314.224243 484.727295,331.282990 463.582520,332.123901 
	C443.782471,332.911316 423.927643,332.286713 404.097198,332.360565 
	C396.315521,332.389557 390.127380,335.492859 386.605774,342.673126 
	C383.013794,349.997009 383.548737,357.242371 388.152740,363.987549 
	C391.426208,368.783417 396.067261,371.567566 401.941986,371.938141 
	C422.751953,373.250824 443.592072,372.793091 464.405151,372.400757 
	C477.339783,372.156952 485.129852,364.066711 484.729828,351.399445 
	C484.407410,341.190521 485.101501,332.303497 495.861938,327.516937 
	C498.054230,326.541779 499.102051,323.766296 501.423523,322.772552 
	C503.214386,323.383820 503.093811,324.871826 503.065491,326.126740 
	C502.821228,336.945251 503.609009,347.782379 502.344543,358.585846 
	C501.839630,362.899841 500.469055,365.816071 495.696106,367.235321 
	C487.688904,369.616272 482.302734,375.332703 479.961975,383.352509 
	C478.838959,387.199921 476.628540,388.843048 473.000824,389.308319 
	C470.694122,389.604218 468.390991,390.192566 466.085846,390.194733 
	C445.255585,390.214355 424.422882,390.307617 403.595673,390.025452 
	C387.598694,389.808746 374.293304,380.043152 368.856354,365.183533 
	C363.581909,350.768036 367.698578,334.261444 379.119537,324.098511 
	C383.428436,320.264252 388.445862,317.724945 394.349670,315.979034 
z"/>
<path fill="#000000" opacity="1.000000" stroke="none" 
	d="
M608.483887,371.804352 
	C619.963196,368.990204 625.890869,360.465820 624.646851,349.123993 
	C623.556030,339.178864 615.550720,332.417969 604.385681,332.353119 
	C585.388306,332.242767 566.389709,332.342621 547.391846,332.284058 
	C524.849548,332.214600 506.721069,315.663025 506.179871,293.208313 
	C505.800568,277.471619 513.809998,265.429382 527.593384,257.892792 
	C540.835144,250.652313 556.429443,252.804001 567.873230,262.039886 
	C581.519592,273.053345 582.603271,288.043884 581.929077,303.747467 
	C581.921936,303.912689 581.925598,304.101624 581.849304,304.237335 
	C578.472839,310.241730 572.867615,306.106018 568.386353,307.103943 
	C565.611206,307.721924 564.019409,306.015045 563.967896,303.110840 
	C563.888062,298.612457 563.937256,294.108246 563.722351,289.616516 
	C563.228088,279.282257 554.350647,271.250763 543.679565,271.350006 
	C533.294922,271.446594 524.807983,279.481903 524.265381,289.731171 
	C523.450195,305.128906 532.485779,314.641388 547.965332,314.659546 
	C567.296631,314.682190 586.630005,314.520142 605.958618,314.754089 
	C624.230225,314.975189 639.984131,329.018433 642.220581,346.609619 
	C644.677002,365.931885 633.440369,383.482635 615.292236,388.619263 
	C611.424744,389.713898 607.456116,390.115417 603.438721,390.120636 
	C583.774292,390.146240 564.109741,390.214691 544.445435,390.187592 
	C541.969482,390.184204 539.494934,389.698639 537.018433,389.449615 
	C532.818909,389.027344 530.389709,387.148529 528.988708,382.740875 
	C526.483154,374.858307 520.901489,369.379333 512.853760,366.944946 
	C509.588684,365.957275 507.757599,364.302582 507.259949,360.861176 
	C505.424896,348.170776 506.103516,335.486298 506.952972,322.391998 
	C511.913116,327.046478 517.151917,330.708527 522.540894,334.195221 
	C524.162659,335.244476 524.212524,337.350311 524.211670,339.226593 
	C524.209961,343.059326 524.184692,346.892670 524.239624,350.724731 
	C524.429016,363.949982 531.952209,372.315033 545.094360,372.448547 
	C566.078064,372.661774 587.082825,373.343384 608.483887,371.804352 
z"/>
<path fill="#000000" opacity="1.000000" stroke="none" 
	d="
M824.103821,656.608276 
	C821.119690,663.145691 815.966064,666.905823 809.400696,669.961426 
	C813.037170,671.561218 815.997803,672.618835 818.725342,674.104492 
	C833.385803,682.090454 834.291687,699.745667 820.510864,709.112427 
	C813.723694,713.725586 805.974182,715.828918 797.913391,716.194031 
	C789.104919,716.593079 780.263611,716.209900 771.439697,716.355713 
	C768.060059,716.411560 766.679504,715.243713 766.690613,711.742615 
	C766.773499,685.597229 766.747925,659.451416 766.699951,633.305908 
	C766.694763,630.492981 767.593384,628.810486 770.652222,628.866882 
	C782.939575,629.093445 795.281799,627.847778 807.458252,630.734009 
	C821.473083,634.056030 827.728638,643.418884 824.103821,656.608276 
M802.234375,676.152222 
	C796.672729,673.427429 790.727356,673.239685 784.690491,673.293335 
	C781.607727,673.320679 780.717224,674.506348 780.803101,677.505005 
	C780.998352,684.322876 781.013916,691.155396 780.806580,697.973022 
	C780.425354,710.506714 781.691284,711.856628 794.334412,710.590637 
	C800.217407,710.001526 805.835388,708.319031 810.111755,703.924255 
	C818.363403,695.444275 815.132019,683.280579 802.234375,676.152222 
M810.701172,652.246216 
	C810.579590,641.518494 803.664307,634.830322 793.004333,635.315979 
	C790.199768,635.443787 787.412720,636.034851 784.626831,636.471741 
	C781.453064,636.969604 780.215393,638.803650 780.395447,642.053772 
	C780.717346,647.862671 780.839111,653.686646 780.891235,659.505615 
	C780.978333,669.219543 780.927551,669.219910 790.658997,668.636292 
	C802.765137,667.910278 808.465210,663.475464 810.701172,652.246216 
z"/>
<path fill="#000000" opacity="1.000000" stroke="none" 
	d="
M479.382507,657.907288 
	C482.795197,667.658447 483.305450,677.251221 480.755402,686.781494 
	C476.134979,704.049255 463.318787,712.013062 446.851288,715.172852 
	C434.493500,717.543945 421.942352,715.939941 409.482605,716.291016 
	C406.112793,716.385925 405.885376,713.997864 405.876160,711.530090 
	C405.848755,704.203430 405.840424,696.876648 405.836548,689.549927 
	C405.826965,671.399475 405.943634,653.247742 405.735931,635.099548 
	C405.682739,630.451355 406.940338,628.505127 411.907471,628.719360 
	C423.354645,629.213074 434.879120,628.002197 446.211365,630.742737 
	C461.503510,634.440857 473.345673,642.312317 479.382507,657.907288 
M420.201447,677.500000 
	C420.200714,686.817566 420.253204,696.135620 420.166138,705.452393 
	C420.140717,708.168152 420.917694,709.994080 423.837616,710.360413 
	C440.750183,712.482056 460.478241,707.222656 465.806091,684.929749 
	C467.025269,679.828369 467.016571,674.703064 466.791870,669.562805 
	C465.783356,646.491882 447.171814,631.854858 424.779877,636.328613 
	C421.410645,637.001770 420.081024,638.551880 420.132874,642.059265 
	C420.302551,653.537354 420.199982,665.019470 420.201447,677.500000 
z"/>
<path fill="#000000" opacity="1.000000" stroke="none" 
	d="
M375.680847,708.251099 
	C375.285400,707.276184 374.890198,706.690796 374.767303,706.052917 
	C372.588501,694.743652 365.603821,691.444763 354.708618,693.002930 
	C348.504242,693.890259 342.067078,693.275757 335.739807,693.124756 
	C332.610626,693.050049 330.878265,694.210999 329.799561,697.198914 
	C328.105591,701.891052 325.730865,706.345093 324.155731,711.070435 
	C322.466217,716.138855 319.469330,717.470886 314.738831,715.700256 
	C314.059326,713.956787 315.035278,712.682434 315.621338,711.340027 
	C327.014648,685.242310 338.416199,659.148193 349.819275,633.054688 
	C350.286102,631.986450 350.758179,630.918884 351.276154,629.875000 
	C351.856140,628.706055 352.235138,627.196472 353.869232,627.174011 
	C355.713989,627.148560 356.248352,628.768433 356.898621,630.089417 
	C357.559692,631.432434 358.096649,632.836304 358.696320,634.209839 
	C369.822449,659.691589 380.953491,685.171143 392.067322,710.658264 
	C392.718323,712.151123 393.683411,713.581482 393.478882,715.310181 
	C383.757904,718.564453 379.222260,716.822632 375.680847,708.251099 
M336.206696,681.493469 
	C335.787628,683.029785 334.418488,684.369690 335.376312,686.570435 
	C345.250092,686.683289 355.256958,687.098999 366.366455,686.260071 
	C361.020630,673.128235 356.018646,660.841003 350.494293,647.270569 
	C345.419952,659.372192 340.930359,670.079163 336.206696,681.493469 
z"/>
<path fill="#000000" opacity="1.000000" stroke="none" 
	d="
M610.229614,675.303528 
	C616.870605,660.166748 623.334717,645.367859 629.842041,630.587891 
	C630.483276,629.131470 630.858521,627.136230 632.996948,627.214661 
	C634.820007,627.281677 635.212646,629.047729 635.797058,630.377258 
	C647.920776,657.960266 660.025208,685.551819 672.101013,713.155884 
	C672.410400,713.863037 672.353882,714.730225 672.497192,715.725769 
	C668.209473,716.866455 664.062073,716.220825 659.960754,716.233948 
	C657.435730,716.242065 656.792786,714.100586 656.032715,712.278076 
	C653.918457,707.208618 651.801819,702.137817 649.830261,697.012146 
	C648.799011,694.331177 647.146545,693.123840 644.195923,693.155884 
	C634.203430,693.264404 624.208008,693.268433 614.215759,693.145569 
	C611.215637,693.108704 609.682983,694.427673 608.672180,697.087524 
	C606.839783,701.909241 604.552124,706.569641 602.922791,711.453613 
	C601.244141,716.485229 598.038574,717.118286 592.735107,715.510437 
	C598.579956,702.065613 604.322449,688.856140 610.229614,675.303528 
M636.596252,664.829590 
	C634.335754,659.361694 632.075317,653.893799 629.290283,647.157166 
	C623.632690,660.841003 618.492798,673.272644 613.186707,686.106323 
	C624.196045,686.106323 634.276306,686.106323 645.162598,686.106323 
	C642.167358,678.717407 639.500854,672.139404 636.596252,664.829590 
z"/>
<path fill="#000000" opacity="1.000000" stroke="none" 
	d="
M246.550873,700.477905 
	C244.953369,704.375549 243.282440,707.847046 242.110352,711.479492 
	C240.494049,716.488647 237.316742,717.240967 232.969681,715.701660 
	C232.163681,713.701233 233.333099,712.287903 233.974442,710.818115 
	C245.426331,684.573059 256.913269,658.343323 268.392395,632.110168 
	C268.525909,631.805054 268.618164,631.474731 268.793182,631.196045 
	C269.724121,629.713562 269.834137,627.280457 272.088043,627.229126 
	C274.385742,627.176697 274.666107,629.482056 275.385590,631.093384 
	C278.575531,638.237305 281.763672,645.382324 284.897522,652.550964 
	C293.365112,671.919861 301.813904,691.297119 310.236847,710.685486 
	C310.880951,712.168091 311.939392,713.589294 311.435028,715.700806 
	C307.331268,716.883728 303.046204,716.257629 298.810608,716.170471 
	C296.747742,716.127991 296.276581,714.302124 295.636047,712.768127 
	C293.391541,707.392883 291.053162,702.054504 288.932739,696.630798 
	C287.931427,694.069641 286.326294,693.119629 283.621826,693.144531 
	C273.629669,693.236572 263.628510,693.398804 253.645966,693.070923 
	C248.292053,692.895020 248.354462,697.145325 246.550873,700.477905 
M270.134613,650.855225 
	C269.613647,650.114746 269.757843,648.839905 267.937469,648.676208 
	C262.853638,661.007446 257.721558,673.455627 252.257996,686.707886 
	C262.131500,686.707886 270.901672,686.625244 279.669067,686.745300 
	C283.622986,686.799438 284.222717,685.294861 282.801697,681.881653 
	C278.592865,671.772278 274.541473,661.597351 270.134613,650.855225 
z"/>
<path fill="#000000" opacity="1.000000" stroke="none" 
	d="
M723.230408,642.844116 
	C733.841980,667.212708 744.327209,691.223816 754.959900,715.572693 
	C750.011597,716.793152 746.024902,716.187622 742.077820,716.254822 
	C739.524292,716.298340 738.842346,714.229004 738.069580,712.405151 
	C735.861023,707.193115 733.639771,701.983765 731.582031,696.711548 
	C730.597046,694.188110 729.032959,693.120728 726.304565,693.145264 
	C716.143433,693.236511 705.980469,693.241699 695.819580,693.139160 
	C693.035828,693.111084 691.588989,694.316833 690.631042,696.805359 
	C688.777100,701.621338 686.724792,706.360840 684.755127,711.132263 
	C682.389587,716.862488 681.658325,717.205383 674.747559,715.348938 
	C676.548645,711.044250 678.265625,706.775696 680.108948,702.562439 
	C690.387329,679.070068 700.696289,655.591064 710.994263,632.107300 
	C711.328674,631.344727 711.624023,630.562622 711.999084,629.820679 
	C712.593933,628.644104 713.080383,627.205688 714.670776,627.172974 
	C716.260559,627.140076 716.864197,628.484985 717.414734,629.711243 
	C719.323914,633.963989 721.209534,638.227295 723.230408,642.844116 
M701.320984,670.719116 
	C699.334656,675.741821 697.348328,680.764465 695.241394,686.092163 
	C706.172485,686.092163 716.266907,686.092163 727.095398,686.092163 
	C721.731873,672.952087 716.699707,660.623718 711.205750,647.164062 
	C707.643982,655.656860 704.633545,662.835083 701.320984,670.719116 
z"/>
<path fill="#000000" opacity="1.000000" stroke="none" 
	d="
M584.408752,698.057129 
	C581.744080,709.364075 574.133728,714.877563 563.782166,717.063660 
	C552.717041,719.400513 541.980347,717.446655 531.400452,713.939453 
	C527.086365,712.509399 527.653503,709.702209 528.286255,706.603088 
	C530.909363,705.833252 532.572693,707.236084 534.322510,708.015625 
	C541.148926,711.056335 548.195740,712.585693 555.695435,711.742981 
	C562.223999,711.009338 567.790894,706.779236 569.481384,701.042053 
	C571.421082,694.459229 569.718018,688.896484 564.558228,684.413818 
	C560.379028,680.783020 555.474304,678.268921 550.716431,675.523071 
	C546.828979,673.279358 542.843750,671.140503 539.221619,668.514221 
	C530.144226,661.932312 526.832153,653.362854 529.505493,644.342529 
	C532.325928,634.825745 540.787292,628.373535 551.507874,627.753784 
	C558.344849,627.358521 565.111389,627.773315 571.803711,629.543518 
	C580.193237,631.762817 580.600037,632.368896 577.262146,641.139893 
	C570.475708,639.200623 563.973755,636.170898 556.937256,634.896851 
	C548.648926,633.396057 545.147827,634.173950 542.812866,638.628296 
	C539.940002,644.108826 541.148132,650.229004 546.285889,655.453186 
	C551.615295,660.872253 558.399475,664.214172 564.812500,668.052002 
	C569.113586,670.625977 573.309570,673.325256 577.053650,676.647278 
	C583.372437,682.253784 586.227112,689.155762 584.408752,698.057129 
z"/>
<path fill="#000000" opacity="1.000000" stroke="none" 
	d="
M221.751709,707.619141 
	C224.253433,707.331787 226.702362,705.674316 228.302505,707.586914 
	C229.920502,709.520813 228.456299,712.103943 227.851532,714.232605 
	C227.061234,717.014404 224.368378,716.282227 222.312424,716.290466 
	C209.658981,716.341248 197.003510,716.195557 184.352585,716.380554 
	C180.297455,716.439880 178.760086,715.140991 178.781555,710.963928 
	C178.912506,685.490845 178.826447,660.016724 178.860245,634.542908 
	C178.867645,628.964294 179.148895,628.992065 186.591232,628.789429 
	C190.931274,628.671204 193.341690,629.402100 193.280746,634.687561 
	C193.031281,656.329102 193.172806,677.975098 193.176285,699.619507 
	C193.177689,708.399963 197.236801,711.791077 206.099930,710.343811 
	C211.184692,709.513611 216.250656,708.568176 221.751709,707.619141 
z"/>
<path fill="#000000" opacity="1.000000" stroke="none" 
	d="
M527.849731,586.576477 
	C527.879089,583.148926 527.891357,580.157104 527.940796,577.165833 
	C527.976929,574.976685 529.017029,573.829346 531.313232,573.775635 
	C533.744690,573.718811 535.145935,574.672241 535.150513,577.204651 
	C535.165833,585.681213 535.172058,594.157837 535.141418,602.634277 
	C535.135864,604.168152 534.898254,605.700134 533.001709,606.091125 
	C530.895142,606.525208 529.090332,606.088562 527.664062,604.310486 
	C524.440613,600.291870 521.166382,596.313965 517.894775,592.334229 
	C516.750183,590.941833 515.552734,589.592957 513.940552,587.712219 
	C512.560608,592.637878 513.390381,597.047729 513.165344,601.374329 
	C513.041870,603.750305 513.202271,606.150024 509.727936,606.264221 
	C506.015900,606.386169 505.847412,603.949280 505.843262,601.302002 
	C505.831482,593.822144 505.793335,586.341919 505.858002,578.862671 
	C505.874329,576.978333 505.312592,574.633606 508.025208,573.932251 
	C510.394928,573.319458 512.195312,574.315430 513.672974,576.166260 
	C516.783569,580.062439 519.933228,583.927612 523.091370,587.785400 
	C524.233704,589.180786 525.156006,590.813232 526.983337,591.651062 
	C528.477783,590.306702 527.579956,588.541931 527.849731,586.576477 
z"/>
<path fill="#000000" opacity="1.000000" stroke="none" 
	d="
M390.039673,606.296021 
	C381.742920,606.277771 381.739594,606.277771 381.734802,598.270996 
	C381.731018,591.953308 381.970093,585.624084 381.659485,579.321777 
	C381.437988,574.827271 383.234222,573.353394 387.481537,573.704895 
	C391.774323,574.060059 396.129089,573.258057 400.401703,574.222290 
	C409.389771,576.250793 414.516998,582.759460 413.888702,591.292725 
	C413.271027,599.682129 407.031281,605.596436 398.001770,606.225647 
	C395.519135,606.398682 393.016113,606.280029 390.039673,606.296021 
M403.660156,582.770081 
	C400.396454,579.790771 396.382721,580.053772 392.399414,580.145569 
	C390.152161,580.197388 389.082550,581.332581 389.093567,583.551086 
	C389.114899,587.850647 389.123993,592.150269 389.156219,596.449707 
	C389.170044,598.298401 389.839264,599.505188 391.893341,599.928833 
	C396.849640,600.951172 402.601715,599.269043 404.909271,595.723694 
	C407.679535,591.467407 407.246002,587.287964 403.660156,582.770081 
z"/>
<path fill="#000000" opacity="1.000000" stroke="none" 
	d="
M572.814209,575.204102 
	C573.603149,578.592407 572.354004,580.042664 569.343994,580.047424 
	C566.186890,580.052429 563.029663,580.080566 559.872620,580.067017 
	C557.454895,580.056702 556.181763,581.042969 556.233032,583.643494 
	C556.281738,586.119202 557.668396,586.725281 559.782898,586.712524 
	C562.441406,586.696533 565.100586,586.739502 567.759033,586.784729 
	C569.601135,586.816040 571.023987,587.377441 571.145935,589.559021 
	C571.278381,591.928711 569.946777,592.859741 567.820618,592.950012 
	C565.829224,593.034546 563.831482,592.973206 561.840820,593.066895 
	C559.309692,593.185974 556.118713,592.349243 556.250610,596.663269 
	C556.382751,600.983887 559.670288,599.857300 562.114319,599.994080 
	C564.765747,600.142456 567.430908,600.030701 570.089172,600.079895 
	C572.152405,600.118042 573.649048,600.876709 573.739258,603.235718 
	C573.835388,605.748291 572.257324,606.283142 570.188782,606.280029 
	C564.372070,606.271301 558.554871,606.233154 552.738770,606.291931 
	C550.001587,606.319641 548.813599,605.042908 548.823120,602.371155 
	C548.852722,594.061829 548.832520,585.752380 548.855713,577.442932 
	C548.860107,575.878906 549.164429,574.020569 550.988892,574.016724 
	C558.206238,574.001587 565.491211,572.564087 572.814209,575.204102 
z"/>
<path fill="#000000" opacity="1.000000" stroke="none" 
	d="
M626.792114,593.772888 
	C627.670227,601.351379 624.818481,605.069031 617.806580,606.392212 
	C613.388123,607.225952 609.184998,606.522217 605.071777,605.028870 
	C602.908203,604.243225 601.086853,602.997070 602.153809,600.194275 
	C603.222046,597.388245 605.116699,598.298645 607.050293,599.127747 
	C610.163269,600.462463 613.404785,601.237427 616.778259,600.385315 
	C618.228760,600.018921 619.745300,599.315430 619.990723,597.598022 
	C620.254761,595.750366 618.795532,594.901611 617.375488,594.413940 
	C614.548889,593.443298 611.622925,592.763062 608.792114,591.803284 
	C604.669617,590.405640 601.721497,587.817139 601.860901,583.130127 
	C602.002625,578.367676 604.838196,575.495850 609.296875,574.248962 
	C613.921265,572.955688 618.530579,573.207581 623.026001,574.901917 
	C624.692200,575.529907 626.047668,576.466431 625.250854,578.629333 
	C624.491028,580.691711 623.251343,581.515625 621.008179,580.627197 
	C618.516174,579.640015 615.900452,579.007080 613.190918,579.485779 
	C611.308716,579.818237 609.560730,580.568604 609.348877,582.785828 
	C609.145264,584.916260 610.852417,585.618286 612.444885,586.138733 
	C614.814636,586.913269 617.253296,587.473877 619.642700,588.191833 
	C622.591797,589.078003 625.202820,590.457336 626.792114,593.772888 
z"/>
<path fill="#000000" opacity="1.000000" stroke="none" 
	d="
M447.161865,586.726562 
	C445.401733,582.602783 443.815338,578.818237 442.138855,574.818726 
	C446.569489,572.866638 449.254211,573.574890 450.948853,577.714844 
	C453.330322,583.532715 455.927094,589.262573 458.874756,596.050171 
	C462.918030,589.631042 464.992188,583.390686 467.618164,577.449707 
	C469.240387,573.779602 471.624268,572.978027 475.276886,574.437927 
	C475.438690,578.237549 473.197479,581.118530 471.921997,584.261902 
	C469.361145,590.573303 466.463013,596.747009 463.764313,603.003479 
	C462.802246,605.233887 461.363159,606.356445 458.803314,606.307068 
	C456.403870,606.260742 455.197662,605.051331 454.334869,603.052307 
	C452.029602,597.711548 449.672272,592.393127 447.161865,586.726562 
z"/>
<path fill="#000000" opacity="1.000000" stroke="none" 
	d="
M558.846436,770.151184 
	C556.595093,763.474609 554.492126,757.165649 552.425110,750.844910 
	C552.281982,750.407349 552.406433,749.882202 552.406433,749.410583 
	C556.280334,748.573608 556.263367,748.579346 558.335449,754.695251 
	C559.342529,757.667725 560.426636,760.614197 561.907959,764.790344 
	C563.716370,759.737549 565.123962,755.760498 566.566528,751.796143 
	C567.133850,750.237000 567.612610,748.506287 569.730591,748.436951 
	C571.952148,748.364197 572.345581,750.216370 572.886536,751.736694 
	C574.270447,755.626404 575.546997,759.554199 576.997925,763.856567 
	C581.677917,759.450684 579.275818,751.092834 585.545776,748.354675 
	C586.209961,748.668152 586.874084,748.981689 587.538269,749.295166 
	C585.084106,756.400452 582.847290,763.592346 580.067566,770.567932 
	C578.972229,773.316528 575.902161,772.754822 574.594849,769.593628 
	C572.960815,765.642517 571.656555,761.555054 569.723022,756.170471 
	C567.822449,761.399963 566.491821,765.399841 564.912903,769.299072 
	C563.640137,772.442139 561.687439,773.587158 558.846436,770.151184 
z"/>
<path fill="#000000" opacity="1.000000" stroke="none" 
	d="
M427.672607,759.711060 
	C426.628845,758.773621 425.535187,757.305237 425.358459,759.811096 
	C425.171661,762.460022 425.339691,765.132263 425.216248,767.787964 
	C425.135986,769.514526 425.574738,771.896973 422.837891,771.860962 
	C420.432770,771.829407 420.756622,769.647644 420.735138,768.072876 
	C420.662445,762.752991 420.674072,757.431458 420.711548,752.110962 
	C420.720490,750.838013 420.412048,749.300171 422.038757,748.680176 
	C423.745697,748.029663 424.890900,749.050232 425.875488,750.257202 
	C429.203796,754.337280 432.514130,758.432007 436.833984,763.757141 
	C436.833984,758.665527 436.807922,755.086853 436.845551,751.508789 
	C436.862946,749.850586 437.399963,748.474670 439.412811,748.613586 
	C441.246185,748.740112 441.305420,750.185669 441.308167,751.549622 
	C441.319580,757.202942 441.328430,762.856445 441.288940,768.509521 
	C441.279907,769.802063 441.457428,771.340515 439.825348,771.868591 
	C438.343536,772.347961 437.275757,771.420898 436.403931,770.367859 
	C433.541565,766.910706 430.713867,763.424866 427.672607,759.711060 
z"/>
<path fill="#000000" opacity="1.000000" stroke="none" 
	d="
M703.071655,760.615173 
	C701.974304,762.091980 701.042053,763.244507 700.134338,764.366699 
	C700.378296,767.163269 703.496948,768.593811 703.383179,771.559143 
	C700.191040,773.291138 698.853149,770.936951 697.423584,768.913879 
	C696.061035,766.985596 694.824768,765.118652 691.944763,765.323547 
	C688.629089,765.559387 689.239075,768.064941 688.826599,770.057800 
	C688.562439,771.334229 687.860779,772.153870 686.418091,772.051758 
	C684.851135,771.940857 684.603027,770.831238 684.573792,769.591736 
	C684.432556,763.610474 684.276550,757.629211 684.196899,751.647034 
	C684.178833,750.291016 684.451538,748.720825 686.195007,748.712891 
	C690.491333,748.693298 694.896118,747.834595 699.047424,749.442566 
	C703.222656,751.059998 704.543701,754.792053 703.071655,760.615173 
M689.120850,754.923279 
	C689.118225,756.251953 689.081055,757.581787 689.122131,758.909058 
	C689.169617,760.442932 689.910706,761.525024 691.521667,761.508240 
	C694.390686,761.478455 697.214111,761.164856 698.967346,758.405457 
	C699.924683,756.898743 699.647766,755.337830 698.368347,754.366272 
	C695.471375,752.166565 692.380005,750.747559 689.120850,754.923279 
z"/>
<path fill="#000000" opacity="1.000000" stroke="none" 
	d="
M383.861084,762.668030 
	C381.626678,764.811401 382.641022,767.297485 382.287201,769.532471 
	C382.093994,770.753174 381.862152,771.896606 380.341248,771.958130 
	C378.876312,772.017395 378.138397,770.986389 378.118683,769.766296 
	C378.016571,763.443848 378.010773,757.119080 378.043915,750.795593 
	C378.050812,749.475708 378.846802,748.595947 380.260681,748.612793 
	C382.404205,748.638245 382.735321,750.246155 382.437958,751.761719 
	C381.236237,757.886230 384.811005,758.122192 389.384491,757.995850 
	C393.138824,757.892212 395.009491,756.781616 394.626434,752.746033 
	C394.471252,751.111511 393.826202,748.605103 396.755249,748.662354 
	C399.445496,748.715027 399.068787,751.074829 399.074890,752.822388 
	C399.094147,758.316895 399.029846,763.812378 398.928375,769.306213 
	C398.902405,770.711609 398.428223,771.979187 396.690582,772.070801 
	C395.190369,772.149902 394.724945,771.230652 394.565765,769.897278 
	C394.278473,767.490417 395.788177,764.197815 393.530731,762.866272 
	C390.870850,761.297302 387.375275,762.218323 383.861084,762.668030 
z"/>
<path fill="#000000" opacity="1.000000" stroke="none" 
	d="
M315.126526,752.325073 
	C314.019897,752.332886 313.354706,752.345215 312.689545,752.347107 
	C310.837067,752.352539 309.391144,752.787109 309.390900,755.084351 
	C309.390656,757.361023 310.830078,757.823486 312.674225,757.879639 
	C314.501587,757.935181 316.332611,757.950378 318.154205,758.087219 
	C319.427704,758.182983 320.417084,758.788330 320.398438,760.244751 
	C320.378723,761.778564 319.247742,762.132690 318.011688,762.185547 
	C316.351044,762.256409 314.686554,762.247559 313.023651,762.250366 
	C311.026917,762.253723 309.321716,762.546082 309.391693,765.167908 
	C309.460846,767.759460 311.238525,767.974426 313.180603,768.026001 
	C315.340210,768.083374 317.505615,768.066467 319.656952,768.232300 
	C320.827393,768.322510 322.036011,768.704712 322.005646,770.260864 
	C321.975739,771.791443 320.838928,772.180786 319.615387,772.193176 
	C315.626099,772.233521 311.635071,772.242249 307.646576,772.165649 
	C305.526550,772.125000 304.837524,770.658386 304.830566,768.793335 
	C304.809448,763.139526 304.796814,757.485168 304.861420,751.831909 
	C304.870239,751.058716 305.163818,750.158997 305.628571,749.548645 
	C306.508270,748.393372 320.131012,747.939026 321.185852,749.000000 
	C322.447418,750.269043 322.162659,751.578979 320.516937,752.006592 
	C318.945801,752.414856 317.223724,752.242188 315.126526,752.325073 
z"/>
<path fill="#000000" opacity="1.000000" stroke="none" 
	d="
M611.294983,764.094360 
	C610.820312,767.288391 612.012939,768.443542 614.872009,768.218994 
	C617.015198,768.050659 619.185547,768.133240 621.338745,768.223999 
	C622.525452,768.274048 623.736938,768.624268 623.837952,770.109436 
	C623.941284,771.628479 622.818054,772.152466 621.585571,772.167725 
	C617.437866,772.219177 613.287292,772.227783 609.141113,772.121155 
	C606.867065,772.062683 606.668762,770.290161 606.663330,768.549622 
	C606.646118,763.070374 606.690918,757.590576 606.636353,752.111816 
	C606.614807,749.947205 607.285583,748.595825 609.699890,748.590454 
	C613.517639,748.581970 617.335144,748.508911 621.152893,748.476624 
	C622.442749,748.465698 623.515869,748.823364 623.480713,750.381592 
	C623.445923,751.928528 622.303894,752.240295 621.062378,752.271240 
	C618.739014,752.329102 616.414124,752.324463 614.090149,752.360840 
	C612.344849,752.388184 611.253052,753.107666 611.243469,755.027588 
	C611.234253,756.888672 612.215576,757.763977 613.980164,757.850708 
	C615.803345,757.940308 617.632507,757.924438 619.453186,758.043457 
	C620.660522,758.122437 621.841492,758.487183 621.938904,759.953918 
	C622.061279,761.797607 620.630249,761.919617 619.288513,762.203674 
	C616.662170,762.759766 613.581116,760.970093 611.294983,764.094360 
z"/>
<path fill="#000000" opacity="1.000000" stroke="none" 
	d="
M646.162781,770.164795 
	C645.059387,771.869629 643.891296,772.539246 642.141052,771.727966 
	C641.014893,769.171387 642.869629,767.305176 643.722961,765.283813 
	C645.721558,760.549194 647.790100,755.837830 650.028320,751.212769 
	C651.737366,747.680969 654.740173,747.225159 656.308533,750.377686 
	C659.681091,757.156799 662.627197,764.148010 665.740234,771.035583 
	C662.518005,773.200745 661.454956,771.366394 660.212952,769.453064 
	C657.337158,765.022766 649.276733,765.289978 646.162781,770.164795 
M650.554199,760.766724 
	C651.759888,764.121948 654.055786,762.341431 656.107971,762.253418 
	C655.521118,758.374756 655.521118,758.374756 653.360901,755.440979 
	C651.899414,756.684570 651.550964,758.533813 650.554199,760.766724 
z"/>
<path fill="#000000" opacity="1.000000" stroke="none" 
	d="
M492.194366,587.012878 
	C492.184448,592.343872 492.158478,597.177124 492.175415,602.010315 
	C492.183929,604.448547 491.648987,606.208618 488.633606,606.288147 
	C485.329987,606.375244 484.780243,604.480652 484.792450,601.825806 
	C484.828522,593.992798 484.825409,586.159485 484.802856,578.326355 
	C484.795349,575.726318 485.235413,573.700195 488.563965,573.756592 
	C491.941833,573.813843 492.176361,576.017395 492.178741,578.515320 
	C492.181274,581.181946 492.190002,583.848511 492.194366,587.012878 
z"/>
<path fill="#000000" opacity="1.000000" stroke="none" 
	d="
M493.283905,756.437988 
	C491.441895,760.393066 492.124237,763.662964 494.997314,766.264221 
	C497.693970,768.705627 500.828644,769.205078 504.178741,767.348511 
	C505.617218,766.551392 507.486237,765.447266 508.503540,767.504700 
	C509.693420,769.911377 507.262360,770.561279 505.752899,771.299438 
	C500.632507,773.803528 493.673676,772.254028 490.324585,767.997314 
	C486.773132,763.483337 486.852051,756.666199 490.506348,752.301514 
	C493.891541,748.258301 501.109375,746.847778 506.038208,749.366882 
	C507.435822,750.081116 509.535583,750.771423 508.594788,752.912048 
	C507.681274,754.990540 505.994293,754.211426 504.379913,753.400879 
	C500.018829,751.210876 496.369873,752.234253 493.283905,756.437988 
z"/>
<path fill="#000000" opacity="1.000000" stroke="none" 
	d="
M806.999756,761.366577 
	C779.927490,761.368103 753.355164,761.368103 725.780945,761.368103 
	C730.579956,758.394348 820.023071,757.905579 826.349670,761.365112 
	C820.066345,761.365112 813.782959,761.365112 806.999756,761.366577 
z"/>
<path fill="#000000" opacity="1.000000" stroke="none" 
	d="
M219.999908,758.887695 
	C241.137421,758.943909 261.774933,758.999573 282.412445,759.055176 
	C282.402161,759.675720 282.391907,760.296204 282.381622,760.916748 
	C249.211685,760.916748 216.041748,760.916748 182.871796,760.916748 
	C195.013809,758.313843 207.281525,759.187012 219.999908,758.887695 
z"/>
<path fill="#000000" opacity="1.000000" stroke="none" 
	d="
M425.667725,580.127197 
	C425.682220,578.813965 425.713226,577.982361 425.707581,577.150940 
	C425.692444,574.911316 426.712708,573.813965 429.033203,573.813904 
	C431.387665,573.813782 432.304932,574.987488 432.304047,577.197083 
	C432.300690,585.680542 432.311432,594.164001 432.327332,602.647461 
	C432.331268,604.743896 431.708191,606.160706 429.243134,606.218750 
	C426.633331,606.280090 425.685608,604.995667 425.691101,602.566589 
	C425.707672,595.247375 425.678741,587.928101 425.667725,580.127197 
z"/>
<path fill="#000000" opacity="1.000000" stroke="none" 
	d="
M828.631287,633.473999 
	C824.957642,629.372803 823.774597,625.134094 826.228821,620.381348 
	C828.244690,616.477478 831.588623,614.654541 835.960266,614.618408 
	C840.544495,614.580566 843.989746,616.404053 845.961792,620.659119 
	C847.995178,625.046509 847.415283,629.091553 844.158386,632.652649 
	C840.913452,636.200623 836.868408,637.118591 832.349243,635.703491 
	C831.120117,635.318542 830.054382,634.411621 828.631287,633.473999 
M832.002747,632.003662 
	C832.002747,632.003662 831.982727,631.987427 832.503906,632.449707 
	C837.488037,634.360901 841.307129,633.076294 843.210205,628.848694 
	C844.996399,624.880615 843.684631,620.446716 840.152344,618.513062 
	C836.159790,616.327515 831.492126,617.371765 829.216675,620.959473 
	C826.866272,624.665527 827.964661,628.996643 832.002747,632.003662 
z"/>
<path fill="#000000" opacity="1.000000" stroke="none" 
	d="
M352.821136,753.182129 
	C351.438873,758.237915 352.306946,763.068420 352.000397,767.854187 
	C351.888245,769.605103 352.236359,772.001648 349.600616,771.956177 
	C346.801056,771.907959 347.579071,769.466919 347.557251,767.764954 
	C347.493958,762.824951 347.904999,757.860840 346.944641,753.162720 
	C345.552063,752.059875 344.165466,752.427063 342.872955,752.293640 
	C341.545654,752.156555 339.962097,752.189941 340.013947,750.329041 
	C340.075317,748.128052 341.897369,748.396729 343.350098,748.400452 
	C347.664703,748.411438 351.979340,748.470764 356.293610,748.534058 
	C357.586304,748.552979 359.174347,748.272095 359.251526,750.253784 
	C359.325073,752.143799 357.859131,752.175415 356.493469,752.319580 
	C355.355988,752.439575 354.232330,752.690918 352.821136,753.182129 
z"/>
<path fill="#000000" opacity="1.000000" stroke="none" 
	d="
M467.905640,764.804688 
	C467.428253,767.649902 469.077209,771.740417 465.444000,771.767212 
	C461.607788,771.795593 463.242676,767.694519 463.110443,765.354797 
	C462.858276,760.892822 462.996216,756.406372 463.046204,751.930847 
	C463.065399,750.209900 463.317108,748.411194 465.676636,748.570862 
	C467.704926,748.708069 467.812378,750.406494 467.839020,751.901794 
	C467.912842,756.045166 467.890503,760.190186 467.905640,764.804688 
z"/>
<path fill="#000000" opacity="1.000000" stroke="none" 
	d="
M499.442078,390.493103 
	C496.042419,390.887390 493.937622,389.529419 493.016571,386.676025 
	C492.230713,384.241425 492.887573,382.057068 495.160461,380.651489 
	C497.346252,379.299805 499.616669,379.282257 501.564911,381.054504 
	C503.631592,382.934479 504.056061,385.262665 502.679657,387.775085 
	C502.028412,388.963806 501.033539,389.826935 499.442078,390.493103 
z"/>
<path fill="#000000" opacity="1.000000" stroke="none" 
	d="
M501.668823,402.065735 
	C498.786102,403.854248 496.222565,403.953369 494.156189,401.611908 
	C492.119080,399.303680 492.148895,396.649353 494.313080,394.435577 
	C496.451904,392.247711 499.125488,391.968964 501.469696,394.031433 
	C504.067200,396.316803 504.632721,399.039520 501.668823,402.065735 
z"/>
<path fill="#000000" opacity="1.000000" stroke="none" 
	d="
M512.482788,390.311798 
	C509.061188,390.916687 506.942963,389.636475 505.967896,386.788544 
	C505.141357,384.374451 505.854218,382.219818 507.985382,380.715118 
	C509.936401,379.337585 511.999451,379.374054 513.974243,380.672546 
	C517.435852,382.948578 516.936401,387.035034 512.482788,390.311798 
z"/>
<path fill="#000000" opacity="1.000000" stroke="none" 
	d="
M506.761688,394.937622 
	C509.367432,392.248932 512.018433,391.947174 514.562500,394.042969 
	C516.758606,395.852051 516.944092,398.429504 515.639709,400.819092 
	C514.384338,403.118927 512.041077,403.927979 509.632996,403.143738 
	C505.642700,401.844269 504.827515,398.981232 506.761688,394.937622 
z"/>
<path fill="#000000" opacity="1.000000" stroke="none" 
	d="
M591.567993,575.327759 
	C591.757141,578.817139 590.187378,581.449829 589.138367,584.213501 
	C588.348267,586.294983 586.759583,586.798279 584.423340,585.607422 
	C584.307983,582.698547 584.965271,579.610901 583.828247,576.569824 
	C583.157166,574.774719 584.053101,572.857971 586.090393,572.159851 
	C588.739502,571.251953 590.608032,572.233765 591.567993,575.327759 
z"/>
<path fill="#000000" opacity="1.000000" stroke="none" 
	d="
M832.012451,632.012878 
	C831.989197,628.872925 832.000793,625.722412 831.910889,622.574890 
	C831.818359,619.334595 833.661682,618.560242 836.400330,618.973877 
	C839.371948,619.422668 841.894409,620.916260 840.704773,624.173096 
	C839.844666,626.527893 839.853149,628.529846 840.590881,630.634216 
	C838.177246,632.352722 837.663513,629.795532 836.218933,629.098389 
	C834.809265,629.605042 834.612732,631.970947 832.308411,631.908936 
	C831.982727,631.987427 832.002747,632.003662 832.012451,632.012878 
z"/>
</svg>